<?xml version="1.0" encoding="UTF-8" standalone="no"?>
<!-- Created with Inkscape (http://www.inkscape.org/) -->

<svg
   xmlns:dc="http://purl.org/dc/elements/1.1/"
   xmlns:cc="http://creativecommons.org/ns#"
   xmlns:rdf="http://www.w3.org/1999/02/22-rdf-syntax-ns#"
   xmlns:svg="http://www.w3.org/2000/svg"
   xmlns="http://www.w3.org/2000/svg"
   xmlns:sodipodi="http://sodipodi.sourceforge.net/DTD/sodipodi-0.dtd"
   xmlns:inkscape="http://www.inkscape.org/namespaces/inkscape"
   width="210mm"
   height="297mm"
   viewBox="0 0 210 297"
   version="1.1"
   id="svg2849"
   inkscape:version="0.92.3 (unknown)"
   sodipodi:docname="logo.svg">
  <defs
     id="defs2843" />
  <sodipodi:namedview
     id="base"
     pagecolor="#ffffff"
     bordercolor="#666666"
     borderopacity="1.0"
     inkscape:pageopacity="0.0"
     inkscape:pageshadow="2"
     inkscape:zoom="1"
     inkscape:cx="-270.92294"
     inkscape:cy="576.84292"
     inkscape:document-units="px"
     inkscape:current-layer="layer1"
     showgrid="false"
     showborder="false"
     inkscape:window-width="1533"
     inkscape:window-height="845"
     inkscape:window-x="67"
     inkscape:window-y="27"
     inkscape:window-maximized="1" />
  <metadata
     id="metadata2846">
    <rdf:RDF>
      <cc:Work
         rdf:about="">
        <dc:format>image/svg+xml</dc:format>
        <dc:type
           rdf:resource="http://purl.org/dc/dcmitype/StillImage" />
        <dc:title></dc:title>
      </cc:Work>
    </rdf:RDF>
  </metadata>
  <g
     inkscape:label="Layer 1"
     inkscape:groupmode="layer"
     id="layer1">
    <g
       transform="matrix(0.26164885,0,0,0.26164885,-456.09942,53.351203)"
       id="g3596">
      <path
         style="fill:#5382a1;stroke-width:0.29405078"
         inkscape:connector-curvature="0"
         d="m 1474.8481,393.65809 c 0,0 -3.881,2.25693 2.762,3.02067 8.0478,0.91808 12.1609,0.78644 21.0296,-0.89212 0,0 2.3317,1.46204 5.5881,2.72832 -19.8814,8.52082 -44.9954,-0.49356 -29.3797,-4.85687"
         id="path3574" />
      <path
         style="fill:#e76f00;stroke-width:0.29405078"
         inkscape:connector-curvature="0"
         d="m 1492.8993,363.67731 c 4.8987,5.64003 -1.2871,10.71534 -1.2871,10.71534 0,0 12.4387,-6.42126 6.7262,-14.46221 -5.3354,-7.49867 -9.4269,-11.22449 12.7229,-24.07057 0,0 -34.7679,8.6834 -18.162,27.81744"
         id="path3576" />
      <path
         sodipodi:nodetypes="cscsssscsscczc"
         style="fill:#5382a1;stroke:#5382a1;stroke-width:1.14244008;stroke-miterlimit:4;stroke-dasharray:none;stroke-opacity:1"
         inkscape:connector-curvature="0"
         d="m 1514.7952,398.98972 c 4.1524,-15.31258 -5.0961,-33.25466 -4.6188,-31.38595 3.6241,14.18814 6.3406,29.8606 -2.4738,35.69786 -6.2576,3.21252 -14.5387,5.4542 -30.6689,2.62321 -0.6986,-0.12265 -6.9784,8.10954 -7.605,8.00268 -0.6266,-0.10688 0.3006,-4.56223 0.013,-6.47498 -0.3539,-2.33855 -4.0469,-3.30545 -5.9481,-4.88829 -12.0115,-10.00013 -4.8842,-32.99622 -4.8842,-32.99622 -2.9201,-2.0571 -8.0916,29.07677 4.0756,34.93752 4.2924,2.06763 4.8198,2.42291 4.9225,4.13012 0.2326,3.86985 -1.082,8.14836 -0.4349,10.9839 0.6689,0.0839 9.9053,-11.41497 10.5647,-11.34163 0,0 32.9072,6.02435 37.0596,-9.28822 z"
         id="path3578" />
      <path
         style="fill:#5382a1;stroke-width:0.29405078"
         inkscape:connector-curvature="0"
         d="m 1476.7144,371.01834 c 0,0 -18.4582,4.38411 -6.5365,5.97615 5.0337,0.67395 15.0683,0.52147 24.4152,-0.26167 7.6389,-0.64439 15.3092,-2.01443 15.3092,-2.01443 0,0 -2.6936,1.15353 -4.6423,2.48414 -18.744,4.9297 -54.9538,2.63636 -44.5295,-2.40611 8.8159,-4.2615 15.9839,-3.77808 15.9839,-3.77808"
         id="path3580" />
      <path
         style="fill:#5382a1;stroke-width:0.26621953"
         inkscape:connector-curvature="0"
         d="m 1513.4411,387.98432 c 17.2507,-8.96414 9.2747,-17.57857 3.7075,-16.418 -1.3645,0.28402 -1.9729,0.5301 -1.9729,0.5301 0,0 0.5065,-0.79352 1.4741,-1.13703 11.0136,-3.87204 19.4838,11.42008 -3.5554,17.4767 0,2.5e-4 0.267,-0.23839 0.3467,-0.45177"
         id="path3582" />
      <path
         style="fill:#e76f00;stroke-width:0.29405078"
         inkscape:connector-curvature="0"
         d="m 1498.3384,315.1168 c 0,0 10.5524,10.55603 -10.0086,26.78822 -16.4879,13.02098 -3.7597,20.44523 -0.01,28.92771 -9.6243,-8.68339 -16.6872,-16.32743 -11.9488,-23.44181 6.9548,-10.44324 26.2218,-15.50649 21.9642,-32.27412"
         id="path3584" />
      <path
         id="path3586"
         d="m 1504.2271,365.31632 c 2.7407,3.15541 -0.7201,5.99487 -0.7201,5.99487 0,0 6.959,-3.59247 3.7631,-8.09109 -2.985,-4.19526 -5.2741,-6.27972 7.118,-13.46665 0,0 -19.4514,4.85805 -10.161,15.56287"
         inkscape:connector-curvature="0"
         style="fill:#e76f00;stroke-width:0.16451107" />
      <path
         id="path3588"
         d="m 1474.8319,336.21637 c 0,0 6.1043,6.10636 -5.7897,15.49621 -9.5377,7.53228 -2.1749,11.82701 0,16.73388 -5.5673,-5.02312 -9.653,-9.44496 -6.912,-13.56043 4.0231,-6.04111 15.1686,-8.97007 12.7057,-18.66966"
         inkscape:connector-curvature="0"
         style="fill:#e76f00;stroke-width:0.17009994" />
      <path
         id="path3590"
         d="m 1477.8835,378.74759 a 4.8236555,6.1543195 0 0 0 -2.8366,5.59901 4.8236555,6.1543195 0 0 0 4.8237,6.15439 4.8236555,6.1543195 0 0 0 4.8237,-6.15439 4.8236555,6.1543195 0 0 0 -0.2222,-1.82459 l -1.7448,-0.9999 a 1.4702745,1.4788407 0 0 1 0.035,0.31359 1.4702745,1.4788407 0 0 1 -1.4703,1.47886 1.4702745,1.4788407 0 0 1 -1.4702,-1.47886 1.4702745,1.4788407 0 0 1 1.0062,-1.40133 z"
         style="opacity:1;fill:#5382a1;fill-opacity:1;stroke:none;stroke-width:1.11181164;stroke-linecap:butt;stroke-linejoin:miter;stroke-miterlimit:4;stroke-dasharray:none;stroke-opacity:1"
         inkscape:connector-curvature="0" />
      <path
         id="path3592"
         d="m 1494.1258,378.33178 -3.0526,1.74878 a 1.4702745,1.4788407 0 0 1 1.0407,1.41283 1.4702745,1.4788407 0 0 1 -1.4702,1.47887 1.4702745,1.4788407 0 0 1 -1.4703,-1.47887 1.4702745,1.4788407 0 0 1 0.043,-0.34918 l -1.6793,0.96198 a 4.8236555,6.1543195 0 0 0 -0.2223,1.82462 4.8236555,6.1543195 0 0 0 4.8237,6.15439 4.8236555,6.1543195 0 0 0 4.8237,-6.15439 4.8236555,6.1543195 0 0 0 -2.8366,-5.59903 z"
         style="opacity:1;fill:#5382a1;fill-opacity:1;stroke:none;stroke-width:1.11181164;stroke-linecap:butt;stroke-linejoin:miter;stroke-miterlimit:4;stroke-dasharray:none;stroke-opacity:1"
         inkscape:connector-curvature="0" />
      <path
         id="path3594"
         d="m 1456.2667,387.98432 c -17.2507,-8.96414 -9.2747,-17.57857 -3.7075,-16.418 1.3645,0.28402 1.9729,0.5301 1.9729,0.5301 0,0 -0.5065,-0.79352 -1.4741,-1.13703 -11.0136,-3.87204 -19.4838,11.42008 3.5554,17.4767 0,2.5e-4 -0.267,-0.23839 -0.3467,-0.45177"
         inkscape:connector-curvature="0"
         style="fill:#5382a1;stroke-width:0.26621953" />
    </g>
  </g>
</svg>
